<mxfile host="app.diagrams.net" modified="2023-11-07T07:07:40.250Z" agent="Mozilla/5.0 (Macintosh; Intel Mac OS X 10_15_7) AppleWebKit/537.36 (KHTML, like Gecko) Chrome/118.0.0.0 Safari/537.36" version="21.6.8" etag="6ghH93kMyztOsZ4-KWT4" type="github">
  <diagram name="第 1 页" id="fpKR3jXbxnCuRngqjjYE">
    <mxGraphModel>
      <root>
        <mxCell id="0" />
        <mxCell id="1" parent="0" />
      </root>
    </mxGraphModel>
  </diagram>
</mxfile>
